<?xml version="1.0" encoding="utf-8" standalone="no"?>
<!DOCTYPE svg PUBLIC "-//W3C//DTD SVG 1.1//EN"
  "http://www.w3.org/Graphics/SVG/1.1/DTD/svg11.dtd">
<svg xmlns:xlink="http://www.w3.org/1999/xlink" width="216.4025pt" height="135.821562pt" viewBox="0 0 216.4025 135.821562" xmlns="http://www.w3.org/2000/svg" version="1.1">
 <metadata>
  <rdf:RDF xmlns:dc="http://purl.org/dc/elements/1.1/" xmlns:cc="http://creativecommons.org/ns#" xmlns:rdf="http://www.w3.org/1999/02/22-rdf-syntax-ns#">
   <cc:Work>
    <dc:type rdf:resource="http://purl.org/dc/dcmitype/StillImage"/>
    <dc:date>2024-01-24T15:07:31.931463</dc:date>
    <dc:format>image/svg+xml</dc:format>
    <dc:creator>
     <cc:Agent>
      <dc:title>Matplotlib v3.8.2, https://matplotlib.org/</dc:title>
     </cc:Agent>
    </dc:creator>
   </cc:Work>
  </rdf:RDF>
 </metadata>
 <defs>
  <style type="text/css">*{stroke-linejoin: round; stroke-linecap: butt}</style>
 </defs>
 <g id="figure_1">
  <g id="patch_1">
   <path d="M 0 135.821562 
L 216.4025 135.821562 
L 216.4025 -0 
L 0 -0 
z
" style="fill: #ffffff"/>
  </g>
  <g id="axes_1">
   <g id="patch_2">
    <path d="M 41.8025 101.16 
L 209.2025 101.16 
L 209.2025 18 
L 41.8025 18 
z
" style="fill: #ffffff"/>
   </g>
   <g id="matplotlib.axis_1">
    <g id="xtick_1">
     <g id="line2d_1">
      <defs>
       <path id="me00b1f5acd" d="M 0 0 
L 0 3.5 
" style="stroke: #000000; stroke-width: 1.5"/>
      </defs>
      <g>
       <use xlink:href="#me00b1f5acd" x="49.411591" y="101.16" style="stroke: #000000; stroke-width: 1.5"/>
      </g>
     </g>
     <g id="text_1">
      <text style="font: 9px 'Arial', sans-serif; text-anchor: middle" x="49.411591" y="114.602031" transform="rotate(-0 49.411591 114.602031)">0</text>
     </g>
    </g>
    <g id="xtick_2">
     <g id="line2d_2">
      <g>
       <use xlink:href="#me00b1f5acd" x="87.457045" y="101.16" style="stroke: #000000; stroke-width: 1.5"/>
      </g>
     </g>
     <g id="text_2">
      <text style="font: 9px 'Arial', sans-serif; text-anchor: middle" x="87.457045" y="114.602031" transform="rotate(-0 87.457045 114.602031)">50</text>
     </g>
    </g>
    <g id="xtick_3">
     <g id="line2d_3">
      <g>
       <use xlink:href="#me00b1f5acd" x="125.5025" y="101.16" style="stroke: #000000; stroke-width: 1.5"/>
      </g>
     </g>
     <g id="text_3">
      <text style="font: 9px 'Arial', sans-serif; text-anchor: middle" x="125.5025" y="114.602031" transform="rotate(-0 125.5025 114.602031)">100</text>
     </g>
    </g>
    <g id="xtick_4">
     <g id="line2d_4">
      <g>
       <use xlink:href="#me00b1f5acd" x="163.547955" y="101.16" style="stroke: #000000; stroke-width: 1.5"/>
      </g>
     </g>
     <g id="text_4">
      <text style="font: 9px 'Arial', sans-serif; text-anchor: middle" x="163.547955" y="114.602031" transform="rotate(-0 163.547955 114.602031)">150</text>
     </g>
    </g>
    <g id="xtick_5">
     <g id="line2d_5">
      <g>
       <use xlink:href="#me00b1f5acd" x="201.593409" y="101.16" style="stroke: #000000; stroke-width: 1.5"/>
      </g>
     </g>
     <g id="text_5">
      <text style="font: 9px 'Arial', sans-serif; text-anchor: middle" x="201.593409" y="114.602031" transform="rotate(-0 201.593409 114.602031)">200</text>
     </g>
    </g>
    <g id="text_6">
     <text style="font: 9px 'Arial', sans-serif; text-anchor: middle" x="125.5025" y="126.832813" transform="rotate(-0 125.5025 126.832813)">Time [ms]</text>
    </g>
   </g>
   <g id="matplotlib.axis_2">
    <g id="ytick_1">
     <g id="line2d_6">
      <defs>
       <path id="m59dde375f7" d="M 0 0 
L -3.5 0 
" style="stroke: #000000; stroke-width: 1.5"/>
      </defs>
      <g>
       <use xlink:href="#m59dde375f7" x="41.8025" y="83.766921" style="stroke: #000000; stroke-width: 1.5"/>
      </g>
     </g>
     <g id="text_7">
      <text style="font: 9px 'Arial', sans-serif; text-anchor: end" x="34.8025" y="86.987936" transform="rotate(-0 34.8025 86.987936)">−50</text>
     </g>
    </g>
    <g id="ytick_2">
     <g id="line2d_7">
      <g>
       <use xlink:href="#m59dde375f7" x="41.8025" y="49.522034" style="stroke: #000000; stroke-width: 1.5"/>
      </g>
     </g>
     <g id="text_8">
      <text style="font: 9px 'Arial', sans-serif; text-anchor: end" x="34.8025" y="52.74305" transform="rotate(-0 34.8025 52.74305)">0</text>
     </g>
    </g>
    <g id="text_9">
     <text style="font: 9px 'Arial', sans-serif; text-anchor: middle" x="13.642031" y="59.58" transform="rotate(-90 13.642031 59.58)">Voltage [mV]</text>
    </g>
   </g>
   <g id="line2d_8">
    <path d="M 49.411591 94.040387 
L 49.837785 94.472581 
L 50.385749 94.933045 
L 50.629289 95.090009 
L 51.055483 95.356957 
L 51.420793 95.566405 
L 53.277782 96.203527 
L 55.743621 96.544126 
L 55.987161 96.590449 
L 56.413355 96.582235 
L 57.083089 96.594143 
L 57.357071 96.631933 
L 57.570168 96.649563 
L 58.087689 96.665558 
L 59.031406 96.609793 
L 59.762024 96.598668 
L 60.583971 96.604954 
L 61.131934 96.663755 
L 62.44096 96.666702 
L 62.775827 96.668537 
L 77.753513 96.680738 
L 78.057938 96.700678 
L 78.423247 96.683805 
L 79.123424 96.663802 
L 79.70183 96.628113 
L 80.097581 96.639504 
L 80.980413 96.605613 
L 81.43705 96.594922 
L 81.832802 96.577406 
L 82.106784 96.614527 
L 82.624304 96.574574 
L 83.020059 96.609412 
L 83.537579 96.59187 
L 84.055102 96.600743 
L 84.359525 96.595392 
L 86.581825 96.615222 
L 87.434213 96.649689 
L 87.495099 96.55198 
L 88.317045 94.193913 
L 88.895451 92.96567 
L 90.021822 90.886122 
L 90.478459 89.964505 
L 90.995979 88.271827 
L 91.239519 86.435969 
L 91.391731 83.57891 
L 91.513502 76.400884 
L 91.604828 56.278566 
L 91.696156 21.838657 
L 91.787485 23.185918 
L 91.909254 28.127552 
L 92.122351 50.505316 
L 92.487659 84.356929 
L 92.761642 93.439225 
L 93.005182 95.44839 
L 93.218279 95.690428 
L 93.461819 95.394903 
L 93.735799 94.861771 
L 94.161994 93.984152 
L 95.379694 91.822506 
L 96.414737 90.108851 
L 96.901817 88.921598 
L 97.236682 87.366906 
L 97.419337 85.583487 
L 97.571548 81.735075 
L 97.69332 70.567684 
L 97.845531 22.587735 
L 97.997743 25.903477 
L 98.1804 41.769085 
L 98.637037 85.451416 
L 98.911017 93.630076 
L 99.15456 95.387321 
L 99.337211 95.589401 
L 99.489426 95.470337 
L 99.976506 94.609851 
L 101.894377 91.247202 
L 102.533671 90.167051 
L 103.233846 88.270701 
L 103.477383 86.739165 
L 103.66004 84.032985 
L 103.781812 78.78096 
L 103.873134 66.235205 
L 104.025349 22.489561 
L 104.116677 24.300698 
L 104.268892 34.007501 
L 104.90818 89.994376 
L 105.151717 94.57168 
L 105.364817 95.522648 
L 105.517032 95.596858 
L 105.791012 95.288578 
L 109.109238 88.912108 
L 109.444103 87.386111 
L 109.657203 85.128928 
L 109.809418 80.31977 
L 109.931183 64.608795 
L 110.083398 22.585799 
L 110.144283 23.630366 
L 110.266049 29.413861 
L 110.509592 57.104638 
L 110.844458 85.378491 
L 111.118438 93.610053 
L 111.361981 95.390624 
L 111.544632 95.598285 
L 111.788175 95.376515 
L 112.062155 94.863338 
L 112.518792 93.869591 
L 113.736489 91.816959 
L 114.223569 91.07268 
L 114.893306 89.909407 
L 115.319501 88.748892 
L 115.623924 87.257931 
L 115.837018 84.781379 
L 115.989232 79.045585 
L 116.080561 67.059824 
L 116.232775 22.455079 
L 116.324098 24.191316 
L 116.476312 33.666925 
L 117.146044 90.799533 
L 117.389587 94.73514 
L 117.602681 95.488975 
L 117.754895 95.509182 
L 117.967989 95.256609 
L 118.45507 94.275664 
L 119.094364 92.97303 
L 120.768698 90.194175 
L 121.407987 88.573302 
L 121.712415 86.873836 
L 121.895067 84.410421 
L 122.016838 79.909676 
L 122.108167 69.857209 
L 122.260375 22.5108 
L 122.382147 24.812112 
L 122.534361 35.429845 
L 123.143207 89.430304 
L 123.38675 94.425051 
L 123.630287 95.497514 
L 123.782501 95.521221 
L 124.117367 95.106014 
L 125.456836 92.485219 
L 127.070284 89.780865 
L 127.466036 88.678457 
L 127.740022 87.300541 
L 127.953116 84.897003 
L 128.10533 79.525733 
L 128.196659 68.623027 
L 128.348867 22.416892 
L 128.470639 25.027352 
L 128.622853 36.033891 
L 129.201256 88.548834 
L 129.475242 94.461498 
L 129.718779 95.557542 
L 129.931873 95.522188 
L 130.144973 95.238326 
L 133.493642 88.706099 
L 133.798065 87.186082 
L 133.980722 85.178621 
L 134.132936 80.513704 
L 134.254702 65.436958 
L 134.406916 22.551981 
L 134.498245 24.443625 
L 134.650453 34.399296 
L 135.289748 90.081253 
L 135.533285 94.567207 
L 135.746385 95.504536 
L 135.959479 95.518817 
L 136.416116 94.774638 
L 138.242665 91.42814 
L 139.216825 89.799933 
L 139.643019 88.532855 
L 139.916999 87.046343 
L 140.099657 84.81067 
L 140.251865 79.179265 
L 140.343194 67.526656 
L 140.495408 22.415408 
L 140.586731 24.134942 
L 140.738945 33.517546 
L 141.408682 90.742375 
L 141.65222 94.726925 
L 141.865314 95.495538 
L 142.017528 95.541083 
L 142.230628 95.28828 
L 142.809031 94.170174 
L 143.813634 92.264822 
L 144.300714 91.513638 
L 145.761948 88.525529 
L 146.066377 86.746606 
L 146.249028 84.048481 
L 146.3708 78.831766 
L 146.462128 66.438464 
L 146.614337 22.496514 
L 146.705666 24.292965 
L 146.85788 33.97322 
L 147.497168 89.973148 
L 147.740711 94.534277 
L 147.984254 95.539045 
L 148.136457 95.552092 
L 148.440886 95.128285 
L 149.262831 93.460696 
L 149.932563 92.281786 
L 150.815394 90.84943 
L 151.393809 89.824785 
L 151.698226 89.09404 
L 152.093983 87.356836 
L 152.307083 85.076964 
L 152.459286 80.062465 
L 152.550614 70.277343 
L 152.702829 22.550688 
L 152.855043 25.992828 
L 153.0377 42.031478 
L 153.494332 85.558269 
L 153.768318 93.654573 
L 154.01186 95.378846 
L 154.194506 95.559586 
L 154.316277 95.491285 
L 154.651149 94.954604 
L 155.168666 93.875119 
L 155.899283 92.525146 
L 156.538583 91.513494 
L 157.299643 90.241831 
L 157.817161 89.017883 
L 158.091146 87.964522 
L 158.334678 86.09375 
L 158.486892 83.174151 
L 158.608663 76.030069 
L 158.699992 57.118407 
L 158.821764 22.502805 
L 158.882649 23.470358 
L 159.004421 28.96036 
L 159.247952 56.291104 
L 159.582824 85.061442 
L 159.856809 93.527351 
L 160.100341 95.359345 
L 160.282998 95.57638 
L 160.404769 95.49465 
L 160.556984 95.292408 
L 161.378929 93.583513 
L 162.231318 92.027222 
L 163.570781 89.850036 
L 163.631667 89.937234 
L 164.63627 91.137383 
L 165.306001 92.289681 
L 166.432375 93.922764 
L 167.071664 94.586797 
L 168.745998 95.686927 
L 170.968304 96.322341 
L 172.064224 96.429602 
L 172.429539 96.487687 
L 173.068827 96.587685 
L 173.434142 96.611883 
L 173.86033 96.64996 
L 174.408302 96.655531 
L 175.108476 96.680816 
L 175.473779 96.664095 
L 175.747765 96.653362 
L 175.930422 96.646731 
L 176.326167 96.634723 
L 176.630596 96.653838 
L 179.705279 96.689229 
L 180.161922 96.687337 
L 180.588111 96.704006 
L 183.023517 96.661785 
L 183.541034 96.681626 
L 184.119436 96.657224 
L 184.576079 96.697187 
L 185.032711 96.630924 
L 185.519797 96.632388 
L 195.444032 96.707946 
L 195.74846 96.706666 
L 195.991991 96.736858 
L 196.29642 96.745616 
L 198.03164 96.73098 
L 198.305626 96.677336 
L 198.823143 96.70965 
L 200.801906 96.606412 
L 201.014995 96.620098 
L 201.441195 96.651068 
L 201.593409 96.648325 
L 201.593409 96.648325 
" clip-path="url(#pc21f31012a)" style="fill: none; stroke: #000000; stroke-width: 1.5; stroke-linecap: square"/>
   </g>
   <g id="line2d_9">
    <path d="M 49.411591 94.040387 
L 50.324864 94.893154 
L 51.085926 95.375449 
L 53.673534 96.280371 
L 54.404153 96.415959 
L 55.256542 96.527886 
L 55.834948 96.506127 
L 56.687337 96.574532 
L 58.179017 96.651314 
L 58.392114 96.675815 
L 60.370874 96.586242 
L 60.583971 96.598637 
L 60.82751 96.60462 
L 63.780428 96.636766 
L 64.29795 96.611052 
L 65.089453 96.644772 
L 65.515648 96.647468 
L 65.941842 96.643606 
L 66.276709 96.672837 
L 66.702903 96.665077 
L 66.976885 96.677561 
L 67.342195 96.685989 
L 70.538652 96.653749 
L 70.873519 96.67186 
L 72.334757 96.687886 
L 73.887321 96.728424 
L 75.409444 96.742277 
L 75.926967 96.758188 
L 87.495099 96.581514 
L 88.225716 94.453279 
L 89.078105 92.591558 
L 89.900051 91.066575 
L 90.843768 88.789271 
L 91.148194 87.055239 
L 91.330848 84.509496 
L 91.452616 79.720918 
L 91.543945 68.356129 
L 91.696156 21.971439 
L 91.787485 23.493096 
L 91.909254 29.439614 
L 92.152794 57.086915 
L 92.487659 85.558849 
L 92.761642 93.871169 
L 92.974739 95.488672 
L 93.157394 95.783393 
L 93.370491 95.580848 
L 93.705359 94.99299 
L 95.227479 92.068868 
L 96.44518 89.92335 
L 96.840931 88.941752 
L 97.145354 87.624968 
L 97.358451 85.788927 
L 97.510665 82.512384 
L 97.632434 74.041265 
L 97.754205 37.846787 
L 97.815088 22.502369 
L 97.875974 22.986874 
L 97.997743 27.848595 
L 98.210843 50.364626 
L 98.576151 84.441483 
L 98.850131 93.3838 
L 99.093674 95.375172 
L 99.306768 95.64432 
L 99.580754 95.334274 
L 100.067828 94.337041 
L 101.529068 91.664373 
L 102.229243 90.542613 
L 102.959866 88.926081 
L 103.264289 87.650331 
L 103.477383 85.835012 
L 103.629597 82.671901 
L 103.751369 74.572851 
L 103.842697 53.05307 
L 103.964463 22.490468 
L 103.994906 22.927441 
L 104.116677 27.590017 
L 104.329771 49.848037 
L 104.695086 84.224048 
L 104.969066 93.317746 
L 105.212603 95.38579 
L 105.39526 95.66171 
L 105.547474 95.577613 
L 105.912783 94.931378 
L 106.765172 93.126723 
L 107.648003 91.56216 
L 108.743929 89.620567 
L 109.261452 87.975989 
L 109.535432 85.805841 
L 109.687646 82.576386 
L 109.809418 74.283528 
L 109.931183 38.844764 
L 110.022512 22.522092 
L 110.052955 22.974414 
L 110.174726 27.746948 
L 110.38782 50.199214 
L 110.753129 84.388516 
L 111.027115 93.357313 
L 111.270652 95.362877 
L 111.453309 95.627641 
L 111.666403 95.47864 
L 112.671006 93.391215 
L 113.218972 92.338755 
L 114.467112 90.271761 
L 115.136844 88.561043 
L 115.410824 87.156238 
L 115.623924 84.642667 
L 115.776138 78.865313 
L 115.867461 67.036546 
L 116.019675 22.39012 
L 116.111004 24.061743 
L 116.263212 33.641587 
L 116.902507 90.031288 
L 117.146044 94.601297 
L 117.359144 95.53233 
L 117.541795 95.589365 
L 117.815781 95.222571 
L 118.698612 93.39319 
L 120.646927 90.0984 
L 121.194893 88.755016 
L 121.468873 87.503146 
L 121.681973 85.516547 
L 121.834181 81.734529 
L 121.955953 71.128829 
L 122.13861 22.423889 
L 122.260375 25.596056 
L 122.41259 37.749803 
L 122.930113 86.846907 
L 123.204093 94.09055 
L 123.447636 95.534311 
L 123.630287 95.653935 
L 123.87383 95.371974 
L 124.574004 93.896914 
L 125.274179 92.519808 
L 125.88303 91.541235 
L 126.461439 90.589497 
L 127.100727 89.267937 
L 127.496479 87.782311 
L 127.709579 86.156601 
L 127.861787 83.480433 
L 127.983559 77.319904 
L 128.074887 62.079503 
L 128.227096 22.5402 
L 128.287982 23.709718 
L 128.440196 32.615 
L 129.14037 91.505071 
L 129.383913 94.950231 
L 129.597007 95.607837 
L 129.749222 95.588759 
L 129.992759 95.281795 
L 131.727979 91.902971 
L 132.854353 90.009038 
L 133.463199 88.33472 
L 133.706742 86.960694 
L 133.889393 84.756977 
L 134.011165 81.007758 
L 134.132936 68.244038 
L 134.285145 22.408958 
L 134.406916 24.94744 
L 134.559131 36.138472 
L 135.137533 88.747118 
L 135.411519 94.559056 
L 135.624613 95.547348 
L 135.807271 95.600077 
L 136.111694 95.203749 
L 137.938242 91.747734 
L 139.247268 89.315417 
L 139.673462 87.625558 
L 139.886557 85.820734 
L 140.038771 82.588365 
L 140.160537 74.320882 
L 140.282308 38.929485 
L 140.373637 22.527077 
L 140.404079 22.962187 
L 140.525851 27.712195 
L 140.738945 50.146555 
L 141.104254 84.375411 
L 141.37824 93.330376 
L 141.621777 95.352573 
L 141.804434 95.605788 
L 141.9262 95.556398 
L 142.382837 94.721998 
L 143.996291 91.65675 
L 144.818237 90.345136 
L 145.457526 88.936302 
L 145.731506 87.834483 
L 145.944606 86.242344 
L 146.127263 82.777377 
L 146.249028 74.996601 
L 146.340357 54.45688 
L 146.462128 22.456574 
L 146.523014 23.518227 
L 146.64478 29.439854 
L 146.888323 57.327758 
L 147.223183 85.604417 
L 147.497168 93.757899 
L 147.710269 95.36213 
L 147.923369 95.61904 
L 148.106014 95.490778 
L 150.54142 90.983147 
L 150.998052 90.237603 
L 151.667783 88.50984 
L 151.941769 87.016982 
L 152.154869 84.236226 
L 152.27664 79.609184 
L 152.367957 69.271627 
L 152.520172 22.53631 
L 152.641943 24.729091 
L 152.794157 35.575729 
L 153.37256 88.53923 
L 153.646546 94.501075 
L 153.859646 95.530423 
L 154.01186 95.598656 
L 154.255392 95.338146 
L 154.925123 93.972833 
L 156.142826 91.740039 
L 156.538583 91.100931 
L 157.269201 89.809218 
L 157.786718 88.314205 
L 158.030261 86.890473 
L 158.212918 84.527879 
L 158.334678 80.416167 
L 158.456449 65.707877 
L 158.608663 22.408527 
L 158.699992 24.228468 
L 158.852206 34.207373 
L 159.491495 90.213305 
L 159.735038 94.65074 
L 159.978581 95.578982 
L 160.130784 95.587672 
L 160.526541 94.963587 
L 160.800527 94.379915 
L 161.622472 92.743812 
L 163.631667 89.289794 
L 163.662109 89.313876 
L 165.032027 89.833224 
L 165.793087 90.558051 
L 166.736804 91.878294 
L 168.258924 93.960517 
L 169.659273 95.156418 
L 170.755204 95.788446 
L 174.042987 96.43246 
L 174.712719 96.449312 
L 175.199805 96.50757 
L 175.747765 96.519891 
L 176.661039 96.572406 
L 177.148113 96.582114 
L 177.604756 96.587324 
L 179.583519 96.662428 
L 179.857493 96.694224 
L 180.588111 96.71255 
L 181.014311 96.703097 
L 181.440499 96.685247 
L 182.536431 96.693284 
L 182.810416 96.68299 
L 183.175719 96.70699 
L 184.210765 96.702554 
L 184.667408 96.698399 
L 185.032711 96.723162 
L 188.137848 96.653195 
L 188.38138 96.654653 
L 188.685808 96.683695 
L 189.233768 96.70966 
L 189.964385 96.726433 
L 190.299257 96.752367 
L 191.669163 96.728832 
L 192.338906 96.711557 
L 196.29642 96.694757 
L 196.600849 96.693639 
L 197.392352 96.696654 
L 198.7927 96.692578 
L 199.127572 96.675047 
L 199.827746 96.64532 
L 200.558363 96.676672 
L 201.593409 96.61749 
L 201.593409 96.61749 
" clip-path="url(#pc21f31012a)" style="fill: none; stroke: #808080; stroke-width: 1.5; stroke-linecap: square"/>
   </g>
   <g id="line2d_10">
    <path d="M 49.411591 94.040387 
L 50.081325 94.634431 
L 50.416192 94.891519 
L 52.760261 96.000825 
L 53.156013 96.099908 
L 54.61725 96.309048 
L 55.134772 96.341921 
L 55.469639 96.442091 
L 56.443797 96.492594 
L 56.656894 96.483256 
L 57.022204 96.466388 
L 57.417956 96.567771 
L 59.609812 96.53505 
L 60.157777 96.557163 
L 60.401316 96.595972 
L 60.70574 96.598966 
L 61.131934 96.633161 
L 65.54609 96.591792 
L 65.850515 96.603685 
L 66.154939 96.611774 
L 66.976885 96.604834 
L 68.103256 96.603789 
L 69.107858 96.687264 
L 71.208387 96.704419 
L 71.451927 96.683209 
L 71.817235 96.652798 
L 72.243429 96.653493 
L 72.60874 96.683659 
L 76.140064 96.650263 
L 76.566258 96.628317 
L 79.397407 96.581686 
L 79.854041 96.628108 
L 80.341121 96.609177 
L 81.284839 96.628662 
L 81.650147 96.646648 
L 82.16767 96.668375 
L 82.654747 96.645608 
L 83.111384 96.605289 
L 83.354924 96.634938 
L 83.68979 96.603517 
L 84.085545 96.611946 
L 84.572622 96.6161 
L 84.90749 96.587408 
L 87.038462 96.66363 
L 87.373328 96.670156 
L 87.495099 96.605519 
L 88.225716 94.403993 
L 90.843768 88.716576 
L 91.087308 87.41617 
L 91.269962 85.356516 
L 91.422174 80.459005 
L 91.513502 70.581459 
L 91.665714 21.78 
L 91.817925 25.242122 
L 91.970139 36.764474 
L 92.518102 87.792673 
L 92.792085 94.451554 
L 93.005182 95.613872 
L 93.157394 95.73997 
L 93.370491 95.549767 
L 93.918457 94.462773 
L 94.983942 92.336563 
L 96.810488 88.844343 
L 97.114914 87.412204 
L 97.328011 85.262723 
L 97.480223 80.958368 
L 97.601991 67.833032 
L 97.754205 22.375758 
L 97.875974 25.038829 
L 98.028185 36.331515 
L 98.576151 87.573244 
L 98.850131 94.275878 
L 99.063231 95.496051 
L 99.245883 95.65371 
L 99.42854 95.486676 
L 102.807651 89.012694 
L 103.142517 87.579063 
L 103.355617 85.646199 
L 103.507826 82.084333 
L 103.629597 72.347762 
L 103.812254 22.374993 
L 103.964463 26.766567 
L 104.14712 44.118024 
L 104.573314 85.059465 
L 104.847294 93.543189 
L 105.090837 95.379656 
L 105.273489 95.604633 
L 105.425703 95.518906 
L 106.399863 93.611322 
L 106.947823 92.62605 
L 107.739326 91.284514 
L 108.439506 90.045564 
L 108.8657 88.99532 
L 109.200566 87.604628 
L 109.41366 85.714536 
L 109.565875 82.29364 
L 109.687646 73.127372 
L 109.809418 34.742273 
L 109.870298 22.377757 
L 109.931183 23.171259 
L 110.052955 28.334863 
L 110.266049 51.329619 
L 110.631363 84.782978 
L 110.905343 93.474293 
L 111.14888 95.404575 
L 111.331538 95.680276 
L 111.514195 95.520944 
L 112.062155 94.454298 
L 112.914543 92.737776 
L 113.706046 91.411077 
L 114.527998 89.941524 
L 115.075958 88.42273 
L 115.349944 86.836772 
L 115.532595 84.391575 
L 115.654367 79.973977 
L 115.776138 63.589233 
L 115.928347 22.504464 
L 115.989232 23.593932 
L 116.111004 29.614044 
L 116.354541 57.629148 
L 116.689407 85.684733 
L 116.963392 93.767451 
L 117.206929 95.440813 
L 117.389587 95.600009 
L 117.572238 95.445642 
L 117.937552 94.812386 
L 121.073121 88.806015 
L 121.407987 87.123234 
L 121.590644 85.03878 
L 121.742858 80.178782 
L 121.864624 64.429321 
L 122.016838 22.449702 
L 122.077724 23.49318 
L 122.199496 29.334372 
L 122.443033 57.164988 
L 122.777898 85.481088 
L 123.051884 93.687132 
L 123.264978 95.341662 
L 123.478078 95.649483 
L 123.630287 95.536301 
L 123.904273 95.052538 
L 124.787098 93.230697 
L 125.456836 92.081056 
L 126.400553 90.525317 
L 126.887633 89.521633 
L 127.34427 87.977836 
L 127.557364 86.49129 
L 127.740022 83.464592 
L 127.861787 77.212525 
L 127.953116 61.601571 
L 128.074887 22.465258 
L 128.166216 23.782045 
L 128.287982 30.129812 
L 128.561967 62.222747 
L 128.86639 85.947169 
L 129.14037 93.794544 
L 129.383913 95.449984 
L 129.566564 95.622018 
L 129.779665 95.433529 
L 130.358067 94.270569 
L 131.606213 91.921375 
L 132.306388 90.757529 
L 132.945676 89.47895 
L 133.280548 88.443621 
L 133.584971 86.607528 
L 133.767622 83.794806 
L 133.889393 78.256818 
L 133.980722 65.005821 
L 134.132936 22.440352 
L 134.193816 23.454797 
L 134.315588 29.201644 
L 134.559131 56.938303 
L 134.893996 85.399045 
L 135.167976 93.66807 
L 135.411519 95.435494 
L 135.594171 95.634125 
L 135.837714 95.382174 
L 136.081251 94.911971 
L 137.177176 92.682239 
L 137.451162 92.226805 
L 138.821074 89.966812 
L 139.247268 88.902243 
L 139.582134 87.30383 
L 139.795228 84.995736 
L 139.947442 80.020033 
L 140.069214 63.757137 
L 140.221422 22.481284 
L 140.282308 23.567704 
L 140.404079 29.540469 
L 140.647617 57.525681 
L 140.982488 85.592419 
L 141.256468 93.691375 
L 141.500005 95.398399 
L 141.682662 95.568025 
L 141.865314 95.415298 
L 142.169742 94.879344 
L 142.869917 93.414442 
L 143.600534 92.111217 
L 144.757351 90.135693 
L 145.39664 88.421408 
L 145.701068 86.60924 
L 145.88372 83.771799 
L 146.005491 78.225531 
L 146.09682 64.906739 
L 146.249028 22.440169 
L 146.309914 23.471468 
L 146.431686 29.235508 
L 146.675223 57.005886 
L 147.010094 85.416487 
L 147.284068 93.665316 
L 147.527611 95.445297 
L 147.740711 95.637804 
L 147.862483 95.515552 
L 148.1669 95.011921 
L 149.536817 92.249383 
L 150.419649 90.853341 
L 151.08938 89.620458 
L 151.485126 88.430694 
L 151.759112 86.832268 
L 151.941769 84.38988 
L 152.06354 80.007858 
L 152.185312 63.683537 
L 152.337514 22.493606 
L 152.3984 23.570766 
L 152.520172 29.57477 
L 152.763715 57.53852 
L 153.098586 85.627354 
L 153.37256 93.731417 
L 153.616103 95.449247 
L 153.79876 95.642961 
L 153.950975 95.524921 
L 157.360529 89.030063 
L 157.695389 87.592343 
L 157.908489 85.698565 
L 158.060703 82.194065 
L 158.182475 72.788523 
L 158.304235 33.74748 
L 158.365121 22.376665 
L 158.426006 23.205231 
L 158.547778 28.483545 
L 158.760878 51.650167 
L 159.126192 84.90354 
L 159.400166 93.507411 
L 159.643709 95.377148 
L 159.856809 95.648093 
L 160.069898 95.394344 
L 160.587427 94.340725 
L 161.104944 93.247063 
L 162.079104 91.587297 
L 162.840164 90.327255 
L 163.266364 89.408582 
L 164.027424 87.305001 
L 164.210081 86.031417 
L 164.362284 83.477896 
L 164.484055 77.414365 
L 164.575384 62.234108 
L 164.697155 22.576428 
L 164.788484 23.896405 
L 164.940698 32.876111 
L 165.640873 92.181161 
L 165.884415 95.904062 
L 166.127947 96.951019 
L 166.462818 97.338976 
L 166.767247 97.377173 
L 167.041221 97.320123 
L 167.34565 97.24829 
L 168.076267 97.069556 
L 168.258924 97.028997 
L 168.745998 96.953789 
L 169.750601 96.788521 
L 170.237687 96.736137 
L 170.785647 96.730107 
L 171.059633 96.723434 
L 171.698921 96.727186 
L 172.490424 96.66316 
L 176.447939 96.649898 
L 178.274488 96.644594 
L 178.761573 96.661101 
L 179.035548 96.648377 
L 179.400862 96.653592 
L 179.674836 96.66468 
L 180.922982 96.611356 
L 182.993074 96.713276 
L 185.215368 96.587277 
L 185.824214 96.644082 
L 187.924748 96.637263 
L 188.80758 96.606339 
L 189.111997 96.621231 
L 189.690411 96.615165 
L 190.238371 96.554869 
L 190.999431 96.553093 
L 191.943148 96.552946 
L 192.521551 96.551551 
L 192.978194 96.559421 
L 193.465268 96.561835 
L 193.769697 96.556573 
L 194.043683 96.585835 
L 195.230931 96.584414 
L 195.931106 96.649427 
L 196.935709 96.612881 
L 198.092526 96.635497 
L 198.610043 96.651554 
L 199.0058 96.690441 
L 201.106323 96.623045 
L 201.441195 96.592659 
L 201.593409 96.586441 
L 201.593409 96.586441 
" clip-path="url(#pc21f31012a)" style="fill: none; stroke: #d3d3d3; stroke-width: 1.5; stroke-linecap: square"/>
   </g>
   <g id="patch_3">
    <path d="M 41.8025 101.16 
L 41.8025 18 
" style="fill: none; stroke: #000000; stroke-width: 1.5; stroke-linejoin: miter; stroke-linecap: square"/>
   </g>
   <g id="patch_4">
    <path d="M 41.8025 101.16 
L 209.2025 101.16 
" style="fill: none; stroke: #000000; stroke-width: 1.5; stroke-linejoin: miter; stroke-linecap: square"/>
   </g>
  </g>
  <g id="text_10">
   <text style="font: 9px 'Arial', sans-serif; text-anchor: middle" x="122.8025" y="13.642031" transform="rotate(-0 122.8025 13.642031)">Predicted constrained traces</text>
  </g>
 </g>
 <defs>
  <clipPath id="pc21f31012a">
   <rect x="41.8025" y="18" width="167.4" height="83.16"/>
  </clipPath>
 </defs>
</svg>
