<?xml version="1.0" encoding="UTF-8" standalone="no"?>
<!-- Created with Inkscape (http://www.inkscape.org/) -->

<svg
   width="11cm"
   height="7.6999998cm"
   viewBox="0 0 110 76.999998"
   version="1.1"
   id="svg1626"
   inkscape:version="1.1.2 (b8e25be833, 2022-02-05)"
   sodipodi:docname="fig1b.svg"
   xmlns:inkscape="http://www.inkscape.org/namespaces/inkscape"
   xmlns:sodipodi="http://sodipodi.sourceforge.net/DTD/sodipodi-0.dtd"
   xmlns="http://www.w3.org/2000/svg"
   xmlns:svg="http://www.w3.org/2000/svg">
  <sodipodi:namedview
     id="namedview1628"
     pagecolor="#ffffff"
     bordercolor="#666666"
     borderopacity="1.0"
     inkscape:pageshadow="2"
     inkscape:pageopacity="0.0"
     inkscape:pagecheckerboard="0"
     inkscape:document-units="mm"
     showgrid="false"
     units="cm"
     showguides="true"
     inkscape:guide-bbox="true"
     inkscape:zoom="0.70710678"
     inkscape:cx="54.447222"
     inkscape:cy="16.970563"
     inkscape:window-width="2560"
     inkscape:window-height="1369"
     inkscape:window-x="-8"
     inkscape:window-y="-8"
     inkscape:window-maximized="1"
     inkscape:current-layer="g1963">
    <sodipodi:guide
       position="5.8802016,60.922904"
       orientation="0,-1"
       id="guide2110" />
    <sodipodi:guide
       position="29.363634,71.412586"
       orientation="0,-1"
       id="guide30077" />
    <sodipodi:guide
       position="9.8310388,77.314791"
       orientation="1,0"
       id="guide30181" />
    <sodipodi:guide
       position="22.903854,82.459349"
       orientation="1,0"
       id="guide30183" />
    <sodipodi:guide
       position="7.1520185,36.120086"
       orientation="1,0"
       id="guide91714" />
    <sodipodi:guide
       position="29.013217,37.761329"
       orientation="1,0"
       id="guide91716" />
    <sodipodi:guide
       position="38.447267,70.536591"
       orientation="1,0"
       id="guide91718" />
    <sodipodi:guide
       position="5.3445012,66.153838"
       orientation="1,0"
       id="guide91720" />
    <sodipodi:guide
       position="84.100297,22.55192"
       orientation="1,0"
       id="guide55011" />
    <sodipodi:guide
       position="84.633843,74.521879"
       orientation="1,0"
       id="guide78988" />
    <sodipodi:guide
       position="99.90535,45.341824"
       orientation="1,0"
       id="guide2055" />
  </sodipodi:namedview>
  <defs
     id="defs1623">
    <rect
       x="-28"
       y="-26.5"
       width="137.65625"
       height="48.5"
       id="rect110578" />
    <rect
       x="-48.083263"
       y="-20.152542"
       width="516.5415"
       height="366.98843"
       id="rect7329" />
  </defs>
  <g
     inkscape:label="Ebene 1"
     inkscape:groupmode="layer"
     id="layer1">
    <g
       transform="matrix(0.16377798,0,0,0.16377798,0.77684119,-2.6979737)"
       id="g1963">
      <rect
         x="72.905586"
         y="285.06985"
         width="43"
         height="24"
         fill="#d9d9d9"
         id="rect1687" />
      <rect
         x="27"
         y="48.845005"
         width="90"
         height="28"
         stroke="#042433"
         stroke-width="2"
         stroke-miterlimit="8"
         fill="#d9f2d0"
         id="rect1689"
         style="stroke:#000000;stroke-opacity:1" />
      <text
         font-family="Arial, Arial_MSFontService, sans-serif"
         font-weight="400"
         font-size="16px"
         id="text1691"
         x="54.248833"
         y="68.844986">id</text>
      <path
         d="m 83.196633,57.3559 c 1.5208,0.401 2.6888,1.2669 3.5039,2.5976 0.8151,1.3308 1.2227,2.9362 1.2227,4.8164 0,1.8855 -0.4063,3.4909 -1.2188,4.8164 -0.8125,1.3256 -1.9818,2.1889 -3.5078,2.5899 l -0.1875,-0.6016 c 1.2031,-0.401 2.0976,-1.1927 2.6836,-2.375 0.5859,-1.1823 0.8789,-2.6849 0.8789,-4.5078 0,-1.7604 -0.2917,-3.2226 -0.875,-4.3867 -0.5833,-1.1641 -1.487,-1.9466 -2.7109,-2.3477 z m -10.4817,0 0.211,0.6015 c -1.2188,0.4011 -2.1211,1.1836 -2.7071,2.3477 -0.5859,1.1641 -0.8789,2.6263 -0.8789,4.3867 0,1.8229 0.293,3.3255 0.8789,4.5078 0.586,1.1823 1.4805,1.974 2.6836,2.375 l -0.1875,0.6016 c -1.526,-0.401 -2.6953,-1.2643 -3.5078,-2.5899 -0.8125,-1.3255 -1.2187,-2.9309 -1.2187,-4.8164 0,-1.8802 0.4075,-3.4856 1.2226,-4.8164 0.8151,-1.3307 1.9831,-2.1966 3.5039,-2.5976 z"
         fill-rule="evenodd"
         id="path1693" />
      <text
         font-family="'Cambria Math', 'Cambria Math_MSFontService', sans-serif"
         font-weight="400"
         font-size="16px"
         id="text1695"
         x="73.22213"
         y="68.844986">𝜃</text>
      <text
         font-family="'Cambria Math', 'Cambria Math_MSFontService', sans-serif"
         font-weight="400"
         font-size="16px"
         transform="translate(86.288,85)"
         id="text1697" />
      <text
         font-family="'Cambria Math', 'Cambria Math_MSFontService', sans-serif"
         font-weight="400"
         font-size="16px"
         transform="translate(89.788,85)"
         id="text1699" />
      <rect
         x="118"
         y="48.845005"
         width="78"
         height="28"
         stroke="#042433"
         stroke-width="2"
         stroke-miterlimit="8"
         fill="#b4e5a2"
         id="rect1701"
         style="stroke:#000000;stroke-opacity:1" />
      <text
         font-family="Arial, Arial_MSFontService, sans-serif"
         font-weight="400"
         font-size="16px"
         id="text1703"
         x="134.97166"
         y="68.844986">val</text>
      <text
         font-family="'Cambria Math', 'Cambria Math_MSFontService', sans-serif"
         font-weight="400"
         font-size="16px"
         id="text1705"
         x="155.30566"
         y="68.844986">(</text>
      <text
         font-family="'Cambria Math', 'Cambria Math_MSFontService', sans-serif"
         font-weight="400"
         font-size="16px"
         id="text1707"
         x="161.97166"
         y="68.844986">𝜃</text>
      <text
         font-family="'Cambria Math', 'Cambria Math_MSFontService', sans-serif"
         font-weight="400"
         font-size="16px"
         id="text1709"
         x="171.43866"
         y="68.844986">)</text>
      <rect
         x="196.61334"
         y="48.845005"
         width="33"
         height="28"
         stroke="#042433"
         stroke-width="2"
         stroke-miterlimit="8"
         fill="#8ed973"
         id="rect1711"
         style="stroke:#000000;stroke-opacity:1" />
      <text
         font-family="Arial, Arial_MSFontService, sans-serif"
         font-weight="400"
         font-size="16px"
         id="text1713"
         x="208.16499"
         y="69.844986">L</text>
      <rect
         x="27"
         y="81.844986"
         width="90"
         height="28"
         stroke="#042433"
         stroke-width="2"
         stroke-miterlimit="8"
         fill="#d9f2d0"
         id="rect1715"
         style="stroke:#000000;stroke-opacity:1" />
      <text
         font-family="Arial, Arial_MSFontService, sans-serif"
         font-weight="400"
         font-size="16px"
         id="text1717"
         x="54.196644"
         y="101.79118">id</text>
      <path
         d="m 89.151143,90.30521 c 1.5209,0.401 2.6888,1.267 3.5039,2.598 0.8151,1.331 1.2227,2.936 1.2227,4.817 0,1.885 -0.4063,3.49 -1.2188,4.816 -0.8125,1.325 -1.9817,2.189 -3.5078,2.59 l -0.1875,-0.602 c 1.2032,-0.401 2.0977,-1.193 2.6836,-2.375 0.586,-1.182 0.8789,-2.685 0.8789,-4.508 0,-1.76 -0.2916,-3.222 -0.875,-4.386 -0.5833,-1.164 -1.487,-1.947 -2.7109,-2.348 z m -16.4883,0 0.2109,0.602 c -1.2187,0.401 -2.1211,1.184 -2.707,2.348 -0.5859,1.164 -0.8789,2.626 -0.8789,4.386 0,1.823 0.293,3.326 0.8789,4.508 0.5859,1.182 1.4805,1.974 2.6836,2.375 l -0.1875,0.602 c -1.526,-0.401 -2.6953,-1.265 -3.5078,-2.59 -0.8125,-1.326 -1.2188,-2.931 -1.2188,-4.816 0,-1.881 0.4076,-3.486 1.2227,-4.817 0.8151,-1.331 1.9831,-2.197 3.5039,-2.598 z"
         fill-rule="evenodd"
         id="path1719" />
      <text
         font-family="'Cambria Math', 'Cambria Math_MSFontService', sans-serif"
         font-weight="400"
         font-size="16px"
         id="text1721"
         x="73.170044"
         y="101.79118">𝑥</text>
      <text
         font-family="'Cambria Math', 'Cambria Math_MSFontService', sans-serif"
         font-weight="400"
         font-size="12px"
         id="text1723"
         x="81.143341"
         y="105.79118">1</text>
      <rect
         x="118"
         y="81.844986"
         width="78"
         height="28"
         stroke="#042433"
         stroke-width="2"
         stroke-miterlimit="8"
         fill="#b4e5a2"
         id="rect1725"
         style="stroke:#000000;stroke-opacity:1" />
      <text
         font-family="Arial, Arial_MSFontService, sans-serif"
         font-weight="400"
         font-size="16px"
         id="text1727"
         x="134.93079"
         y="102.16769">val</text>
      <text
         font-family="'Cambria Math', 'Cambria Math_MSFontService', sans-serif"
         font-weight="400"
         font-size="16px"
         id="text1729"
         x="155.26379"
         y="102.16769">(</text>
      <text
         font-family="'Cambria Math', 'Cambria Math_MSFontService', sans-serif"
         font-weight="400"
         font-size="16px"
         id="text1731"
         x="161.93079"
         y="102.16769">𝑥</text>
      <text
         font-family="'Cambria Math', 'Cambria Math_MSFontService', sans-serif"
         font-weight="400"
         font-size="12px"
         id="text1733"
         x="169.90379"
         y="106.16769">1</text>
      <text
         font-family="'Cambria Math', 'Cambria Math_MSFontService', sans-serif"
         font-weight="400"
         font-size="16px"
         id="text1735"
         x="177.40379"
         y="102.16769">)</text>
      <rect
         x="196.61334"
         y="81.844986"
         width="33"
         height="28"
         stroke="#042433"
         stroke-width="2"
         stroke-miterlimit="8"
         fill="#8ed973"
         id="rect1737"
         style="stroke:#000000;stroke-opacity:1" />
      <text
         font-family="Arial, Arial_MSFontService, sans-serif"
         font-weight="400"
         font-size="16px"
         id="text1739"
         x="208.16499"
         y="102.84497">L</text>
      <rect
         x="27"
         y="114.84497"
         width="90"
         height="29"
         stroke="#042433"
         stroke-width="2"
         stroke-miterlimit="8"
         fill="#d9f2d0"
         id="rect1741"
         style="stroke:#000000;stroke-opacity:1" />
      <text
         font-family="Arial, Arial_MSFontService, sans-serif"
         font-weight="400"
         font-size="16px"
         id="text1743"
         x="54.321678"
         y="135.84499">id(</text>
      <text
         font-family="'Cambria Math', 'Cambria Math_MSFontService', sans-serif"
         font-weight="400"
         font-size="16px"
         id="text1745"
         x="71.98838"
         y="135.84499">𝑥</text>
      <text
         font-family="'Cambria Math', 'Cambria Math_MSFontService', sans-serif"
         font-weight="400"
         font-size="12px"
         id="text1747"
         x="80.334976"
         y="138.84499">2</text>
      <text
         font-family="Arial, Arial_MSFontService, sans-serif"
         font-weight="400"
         font-size="16px"
         id="text1749"
         x="87.834976"
         y="135.84499">)</text>
      <rect
         x="118"
         y="114.84497"
         width="78"
         height="29"
         stroke="#042433"
         stroke-width="2"
         stroke-miterlimit="8"
         fill="#b4e5a2"
         id="rect1751"
         style="stroke:#000000;stroke-opacity:1" />
      <text
         font-family="Arial, Arial_MSFontService, sans-serif"
         font-weight="400"
         font-size="16px"
         id="text1753"
         x="134.52864"
         y="135.84499">val</text>
      <text
         font-family="'Cambria Math', 'Cambria Math_MSFontService', sans-serif"
         font-weight="400"
         font-size="16px"
         id="text1755"
         x="154.86163"
         y="135.84499">(</text>
      <text
         font-family="'Cambria Math', 'Cambria Math_MSFontService', sans-serif"
         font-weight="400"
         font-size="16px"
         id="text1757"
         x="161.52864"
         y="135.84499">𝑥</text>
      <text
         font-family="'Cambria Math', 'Cambria Math_MSFontService', sans-serif"
         font-weight="400"
         font-size="12px"
         id="text1759"
         x="169.87564"
         y="138.84499">2</text>
      <text
         font-family="'Cambria Math', 'Cambria Math_MSFontService', sans-serif"
         font-weight="400"
         font-size="16px"
         id="text1761"
         x="177.37564"
         y="135.84499">)</text>
      <rect
         x="196.61273"
         y="114.84497"
         width="33.001995"
         height="29"
         stroke="#000000"
         stroke-width="2.0354"
         stroke-miterlimit="8"
         fill="#779c69"
         id="rect1763" />
      <text
         font-family="Arial, Arial_MSFontService, sans-serif"
         font-weight="400"
         font-size="16px"
         id="text1765"
         x="206.83099"
         y="135.84499">C</text>
      <text
         font-family="Arial, Arial_MSFontService, sans-serif"
         font-weight="400"
         font-size="19px"
         id="text1767"
         style="font-size:17.232px"
         x="27.923538"
         y="268.74826">Dependencies</text>
      <text
         font-family="'Cambria Math', 'Cambria Math_MSFontService', sans-serif"
         font-weight="400"
         font-size="19px"
         transform="translate(50.9117,338)"
         id="text1771" />
      <text
         font-family="'Cambria Math', 'Cambria Math_MSFontService', sans-serif"
         font-weight="400"
         font-size="19px"
         id="text1773"
         x="43.983913"
         y="302.45914">𝜃</text>
      <text
         font-family="'Cambria Math', 'Cambria Math_MSFontService', sans-serif"
         font-weight="400"
         font-size="19px"
         transform="translate(66.125,338)"
         id="text1775" />
      <text
         font-family="'Cambria Math', 'Cambria Math_MSFontService', sans-serif"
         font-weight="400"
         font-size="19px"
         transform="translate(70.2917,338)"
         id="text1777" />
      <text
         font-family="'Cambria Math', 'Cambria Math_MSFontService', sans-serif"
         font-weight="400"
         font-size="19px"
         transform="translate(74.4583,338)"
         id="text1779" />
      <text
         font-family="'Cambria Math', 'Cambria Math_MSFontService', sans-serif"
         font-weight="400"
         font-size="19px"
         transform="translate(78.625,338)"
         id="text1781" />
      <text
         font-family="'Cambria Math', 'Cambria Math_MSFontService', sans-serif"
         font-weight="400"
         font-size="19px"
         transform="translate(82.7917,338)"
         id="text1783" />
      <text
         font-family="'Cambria Math', 'Cambria Math_MSFontService', sans-serif"
         font-weight="400"
         font-size="19px"
         transform="translate(86.9583,338)"
         id="text1785" />
      <text
         font-family="'Cambria Math', 'Cambria Math_MSFontService', sans-serif"
         font-weight="400"
         font-size="19px"
         transform="translate(91.125,338)"
         id="text1787" />
      <text
         font-family="'Cambria Math', 'Cambria Math_MSFontService', sans-serif"
         font-weight="400"
         font-size="19px"
         id="text1789"
         x="84.197289"
         y="302.45914">x</text>
      <text
         font-family="'Cambria Math', 'Cambria Math_MSFontService', sans-serif"
         font-weight="400"
         font-size="14px"
         id="text1791"
         x="93.130592"
         y="306.45914">1</text>
      <text
         font-family="'Cambria Math', 'Cambria Math_MSFontService', sans-serif"
         font-weight="400"
         font-size="19px"
         transform="translate(112.832,338)"
         id="text1793" />
      <text
         font-family="'Cambria Math', 'Cambria Math_MSFontService', sans-serif"
         font-weight="400"
         font-size="19px"
         transform="translate(116.998,338)"
         id="text1795" />
      <text
         font-family="'Cambria Math', 'Cambria Math_MSFontService', sans-serif"
         font-weight="400"
         font-size="19px"
         transform="translate(121.165,338)"
         id="text1797" />
      <text
         font-family="'Cambria Math', 'Cambria Math_MSFontService', sans-serif"
         font-weight="400"
         font-size="19px"
         transform="translate(125.332,338)"
         id="text1799" />
      <text
         font-family="'Cambria Math', 'Cambria Math_MSFontService', sans-serif"
         font-weight="400"
         font-size="19px"
         transform="translate(129.498,338)"
         id="text1801" />
      <text
         font-family="'Cambria Math', 'Cambria Math_MSFontService', sans-serif"
         font-weight="400"
         font-size="19px"
         transform="translate(133.665,338)"
         id="text1803" />
      <text
         font-family="'Cambria Math', 'Cambria Math_MSFontService', sans-serif"
         font-weight="400"
         font-size="19px"
         id="text1805"
         x="126.73759"
         y="302.45914">x</text>
      <text
         font-family="'Cambria Math', 'Cambria Math_MSFontService', sans-serif"
         font-weight="400"
         font-size="14px"
         id="text1807"
         x="136.10358"
         y="306.45914">2</text>
      <path
         d="m 417.95322,165.23608 c 0,-19.2758 14.68734,-34.90161 32.80546,-34.90161 h 131.21689 c 18.11813,0 32.80547,15.62581 32.80547,34.90161 v 218.23823 c 0,19.2758 -14.68734,34.90161 -32.80547,34.90161 H 450.75868 c -18.11812,0 -32.80546,-15.62581 -32.80546,-34.90161 z"
         stroke="#000000"
         stroke-width="3.42649"
         stroke-miterlimit="8"
         fill="#f3f3f4"
         fill-rule="evenodd"
         id="path1809" />
      <path
         d="m 509.99873,236.85272 0.61754,186.35605"
         stroke="#000000"
         stroke-width="3.65307"
         stroke-miterlimit="8"
         fill="none"
         fill-rule="evenodd"
         id="path1811" />
      <path
         d="m 435.5,255.678 c 0,-2.945 2.388,-5.333 5.333,-5.333 h 140.334 c 2.945,0 5.333,2.388 5.333,5.333 v 21.334 c 0,2.945 -2.388,5.333 -5.333,5.333 H 440.833 c -2.945,0 -5.333,-2.388 -5.333,-5.333 z"
         stroke="#042433"
         stroke-width="3"
         stroke-miterlimit="8"
         fill="#f2f4c1"
         fill-rule="evenodd"
         id="path1813"
         style="stroke:#000000;stroke-opacity:1" />
      <text
         font-family="Arial, Arial_MSFontService, sans-serif"
         font-weight="400"
         font-size="19px"
         id="text1815"
         style="font-size:17.232px"
         x="466.67999"
         y="272.84506">Add + Norm</text>
      <path
         d="m 435.5,196.512 c 0,-4.511 3.656,-8.167 8.167,-8.167 h 134.666 c 4.511,0 8.167,3.656 8.167,8.167 v 32.666 c 0,4.511 -3.656,8.167 -8.167,8.167 H 443.667 c -4.511,0 -8.167,-3.656 -8.167,-8.167 z"
         stroke="#042433"
         stroke-width="3"
         stroke-miterlimit="8"
         fill="#ffe2bb"
         fill-rule="evenodd"
         id="path1817"
         style="stroke:#000000;stroke-opacity:1" />
      <text
         font-family="Arial, Arial_MSFontService, sans-serif"
         font-weight="400"
         font-size="19px"
         id="text1819"
         style="font-size:17.232px"
         x="468.366"
         y="211.07599">Multi</text>
      <text
         font-family="Arial, Arial_MSFontService, sans-serif"
         font-weight="400"
         font-size="19px"
         id="text1821"
         style="font-size:17.232px"
         x="507.69901"
         y="211.07599">-</text>
      <text
         font-family="Arial, Arial_MSFontService, sans-serif"
         font-weight="400"
         font-size="19px"
         id="text1823"
         style="font-size:17.232px"
         x="513.86603"
         y="211.07599">Head</text>
      <text
         font-family="Arial, Arial_MSFontService, sans-serif"
         font-weight="400"
         font-size="19px"
         id="text1825"
         style="font-size:17.232px"
         x="476.612"
         y="227.61398">Attention</text>
      <path
         d="m 436.5,42.012 c 0,-5.8912 4.776,-10.6669 10.667,-10.6669 h 129.666 c 5.891,0 10.667,4.7757 10.667,10.6669 v 42.666 c 0,5.891 -4.776,10.667 -10.667,10.667 H 447.167 c -5.891,0 -10.667,-4.776 -10.667,-10.667 z"
         stroke="#042433"
         stroke-width="3"
         stroke-miterlimit="8"
         fill="#c2f1c8"
         fill-rule="evenodd"
         id="path1827"
         style="stroke:#000000;stroke-opacity:1" />
      <text
         font-family="Arial, Arial_MSFontService, sans-serif"
         font-weight="400"
         font-size="19px"
         id="text1829"
         style="font-size:17.232px"
         x="491.203"
         y="57.844994">Input</text>
      <text
         font-family="Arial, Arial_MSFontService, sans-serif"
         font-weight="400"
         font-size="19px"
         id="text1831"
         style="font-size:17.232px"
         x="464.789"
         y="80.844986">Embedding</text>
      <path
         d="m 512,94.845 v 84.97 h -4 v -84.97 z m -2,84.97 6,-4 -6,12 -6,-12 z"
         id="path1833" />
      <path
         d="m 434.5,323.202 c 0,-4.511 3.656,-8.167 8.167,-8.167 h 135.666 c 4.511,0 8.167,3.656 8.167,8.167 v 32.666 c 0,4.511 -3.656,8.167 -8.167,8.167 H 442.667 c -4.511,0 -8.167,-3.656 -8.167,-8.167 z"
         stroke="#042433"
         stroke-width="3"
         stroke-miterlimit="8"
         fill="#c2e8f7"
         fill-rule="evenodd"
         id="path1835"
         style="stroke:#000000;stroke-opacity:1" />
      <text
         font-family="Arial, Arial_MSFontService, sans-serif"
         font-weight="400"
         font-size="19px"
         id="text1837"
         x="458.64297"
         y="345.53519"
         style="font-size:17.232px">Feed Forward</text>
      <path
         d="m 434.5,378.138 c 0,-2.946 2.388,-5.334 5.334,-5.334 h 141.333 c 2.945,0 5.333,2.388 5.333,5.334 v 21.333 c 0,2.945 -2.388,5.333 -5.333,5.333 H 439.834 c -2.946,0 -5.334,-2.388 -5.334,-5.333 z"
         stroke="#042433"
         stroke-width="3"
         stroke-miterlimit="8"
         fill="#f2f4c1"
         fill-rule="evenodd"
         id="path1839"
         style="stroke:#000000;stroke-opacity:1" />
      <text
         font-family="Arial, Arial_MSFontService, sans-serif"
         font-weight="400"
         font-size="19px"
         id="text1841"
         x="466.55997"
         y="395.3042"
         style="font-size:17.232px">Add + Norm</text>
      <path
         d="m 585.576,151.845 c 9.665,0 17.5,8.954 17.5,20"
         stroke="#000000"
         stroke-width="4"
         stroke-miterlimit="8"
         fill="none"
         fill-rule="evenodd"
         id="path1843" />
      <path
         d="m 511,151.845 h 74.576"
         stroke="#000000"
         stroke-width="3.60808"
         stroke-miterlimit="8"
         fill="none"
         fill-rule="evenodd"
         id="path1845"
         sodipodi:nodetypes="cc" />
      <path
         d="m 603.076,253.312 10e-5,-82.4667"
         stroke="#000000"
         stroke-width="4"
         stroke-miterlimit="8"
         fill="none"
         fill-rule="evenodd"
         id="path1847" />
      <path
         d="m 603.076,253.312 c 0,9.665 1.246,16.533 -10.076,16.533"
         stroke="#000000"
         stroke-width="4"
         stroke-miterlimit="8"
         fill="none"
         fill-rule="evenodd"
         id="path1849"
         sodipodi:nodetypes="cc" />
      <path
         d="m 593,267.845 h 2.618 v 4 H 593 Z m 0,2 4,6 -12,-6 12,-6 z"
         id="path1851" />
      <path
         d="m 534,159.845 c 7.18,0 13,6.492 13,14.5"
         stroke="#000000"
         stroke-width="4"
         stroke-miterlimit="8"
         fill="none"
         fill-rule="evenodd"
         id="path1853" />
      <path
         d="m 511,159.845 h 23.717"
         stroke="#000000"
         stroke-width="4"
         stroke-miterlimit="8"
         fill="none"
         fill-rule="evenodd"
         id="path1855" />
      <path
         d="m 549.00007,178.48902 3e-5,-4.64432 h -3.99999 l -4e-5,4.64428 z m -2,-2e-5 -5.99997,-4 5.9999,12 6.0001,-11.9999 z"
         id="path1857" />
      <path
         d="m 485,159.845 c -7.1797,0 -13,6.49187 -13,14.5"
         stroke="#000000"
         stroke-width="4"
         stroke-miterlimit="8"
         fill="none"
         fill-rule="evenodd"
         id="path1859" />
      <path
         d="M 508.717,159.845 485,159.8451"
         stroke="#000000"
         stroke-width="4"
         stroke-miterlimit="8"
         fill="none"
         fill-rule="evenodd"
         id="path1861" />
      <path
         d="m 470,178.489 v -4.644 h 4 v 4.644 z m 2,0 6,-4 -6,12 -6,-12 z"
         id="path1863" />
      <path
         d="m 586.576,304.845 c 9.665,0 17.5,9.178 17.5,20.5"
         stroke="#000000"
         stroke-width="4"
         stroke-miterlimit="8"
         fill="none"
         fill-rule="evenodd"
         id="path1865" />
      <path
         d="m 512,304.845 h 74.576"
         stroke="#000000"
         stroke-width="4"
         stroke-miterlimit="8"
         fill="none"
         fill-rule="evenodd"
         id="path1867"
         sodipodi:nodetypes="cc" />
      <path
         d="m 604.0255,374.03463 1.4e-4,-49.18896"
         stroke="#000000"
         stroke-width="3.5759"
         stroke-miterlimit="8"
         fill="none"
         fill-rule="evenodd"
         id="path1869" />
      <path
         d="m 604.076,374.035 c 0,9.665 1.23806,17.51938 -10.08394,17.51938"
         stroke="#000000"
         stroke-width="4"
         stroke-miterlimit="8"
         fill="none"
         fill-rule="evenodd"
         id="path1871"
         sodipodi:nodetypes="cc" />
      <path
         d="m 591.576,389.535 h 2.618 v 4 h -2.618 z m 0,2 4,6 -12,-6 12,-6 z"
         id="path1873" />
      <path
         d="m 435.5,449.944 c 0,-3.221 2.612,-5.833 5.833,-5.833 h 139.334 c 3.221,0 5.833,2.612 5.833,5.833 v 23.334 c 0,3.221 -2.612,5.833 -5.833,5.833 H 441.333 c -3.221,0 -5.833,-2.612 -5.833,-5.833 z"
         stroke="#042433"
         stroke-width="3"
         stroke-miterlimit="8"
         fill="#f2f2f2"
         fill-rule="evenodd"
         id="path1875"
         style="stroke:#000000;stroke-opacity:1" />
      <text
         font-family="Arial, Arial_MSFontService, sans-serif"
         font-weight="400"
         font-size="19px"
         id="text1877"
         x="484.85501"
         y="467.61108"
         style="font-size:17.232px">Linear</text>
      <path
         d="m 508.75858,415.07213 -0.0411,20.21673 3.75381,0.009 -0.0472,-20.21036 z m 1.83583,20.22103 -5.62258,-4.013 5.60632,12.013 5.6551,-11.987 z"
         id="path1879"
         style="stroke-width:0.968737"
         sodipodi:nodetypes="cccccccccc" />
      <path
         d="m 338.5,328.535 c 0,-3.037 2.463,-5.5 5.5,-5.5 h 30 c 3.038,0 5.5,2.463 5.5,5.5 v 22 c 0,3.038 -2.462,5.5 -5.5,5.5 h -30 c -3.037,0 -5.5,-2.462 -5.5,-5.5 z"
         stroke="#042433"
         stroke-width="3"
         stroke-miterlimit="8"
         fill="#c2e8f7"
         fill-rule="evenodd"
         id="path1881"
         style="stroke:#000000;stroke-opacity:1" />
      <text
         font-family="Arial, Arial_MSFontService, sans-serif"
         font-weight="400"
         font-size="19px"
         id="text1883"
         x="355.677"
         y="345.53519"
         style="font-size:17.232px">t</text>
      <path
         d="m 379,339.535 55.906,0.007"
         stroke="#000000"
         stroke-width="4"
         stroke-miterlimit="8"
         fill="none"
         fill-rule="evenodd"
         id="path1885" />
      <path
         d="m 379,212.098 55.5451,-0.25281"
         stroke="#000000"
         stroke-width="4"
         stroke-miterlimit="8"
         fill="none"
         fill-rule="evenodd"
         id="path1887" />
      <path
         d="m 279.5,197.845 c 0,-4.142 3.358,-7.5 7.5,-7.5 h 85 c 4.142,0 7.5,3.358 7.5,7.5 v 30 c 0,4.142 -3.358,7.5 -7.5,7.5 h -85 c -4.142,0 -7.5,-3.358 -7.5,-7.5 z"
         stroke="#042433"
         stroke-width="3"
         stroke-miterlimit="8"
         fill="#ffe2bb"
         fill-rule="evenodd"
         id="path1889"
         style="stroke:#000000;stroke-opacity:1" />
      <text
         font-family="Arial, Arial_MSFontService, sans-serif"
         font-weight="400"
         font-size="19px"
         id="text1891"
         style="font-size:17.232px"
         x="295.31"
         y="211.07599">Attention</text>
      <text
         font-family="Arial, Arial_MSFontService, sans-serif"
         font-weight="400"
         font-size="19px"
         id="text1893"
         style="font-size:17.232px"
         x="309.81"
         y="227.61398">Mask</text>
      <path
         d="m 69.924,143.845 10e-5,14.729"
         stroke="#000000"
         stroke-width="2"
         stroke-miterlimit="8"
         fill="none"
         fill-rule="evenodd"
         id="path1895" />
      <text
         font-family="Arial, Arial_MSFontService, sans-serif"
         font-weight="400"
         font-size="16px"
         id="text1897"
         x="37.661598"
         y="177.61398"
         style="font-size:17.232px">ID vector</text>
      <path
         d="m 158,143.845 v 14.729"
         stroke="#000000"
         stroke-width="2"
         stroke-miterlimit="8"
         fill="none"
         fill-rule="evenodd"
         id="path1899" />
      <text
         font-family="Arial, Arial_MSFontService, sans-serif"
         font-weight="400"
         font-size="16px"
         id="text1901"
         x="139.70033"
         y="177.74385"
         style="font-size:17.232px">Value</text>
      <text
         font-family="Arial, Arial_MSFontService, sans-serif"
         font-weight="400"
         font-size="16px"
         id="text1903"
         style="font-size:17.232px"
         x="188.09399"
         y="208.84499">Condition</text>
      <text
         font-family="Arial, Arial_MSFontService, sans-serif"
         font-weight="400"
         font-size="16px"
         id="text1905"
         style="font-size:17.232px"
         x="188.09399"
         y="227.84499">state</text>
      <path
         d="m 213,142.845 v 43.219"
         stroke="#000000"
         stroke-width="2"
         stroke-miterlimit="8"
         fill="none"
         fill-rule="evenodd"
         id="path1907" />
      <path
         d="m 329.00984,238.53333 v 58.9775"
         stroke="#000000"
         stroke-width="2.33634"
         stroke-miterlimit="8"
         fill="none"
         fill-rule="evenodd"
         id="path1907-8" />
      <path
         d="m 159.39691,296.35499 170.04727,6.3e-4"
         stroke="#000000"
         stroke-width="2.31348"
         stroke-miterlimit="8"
         fill="none"
         fill-rule="evenodd"
         id="path1907-8-8" />
      <text
         font-family="Arial, Arial_MSFontService, sans-serif"
         font-weight="400"
         font-size="19px"
         id="text1909"
         style="font-size:17.232px"
         x="28.979437"
         y="35.749626">Tokenization</text>
      <path
         d="m 429.002,63.862497 0.264,-6.72e-4 -0.005,-1.999992 -0.264,6.7e-4 z m -1.062,3.002716 7.99,-4.020364 -8.01,-3.979616 z"
         id="path1911"
         sodipodi:nodetypes="ccccccccc" />
      <path
         d="m 332.96026,241.94986 -3.95042,-6.64753 -4.03965,6.62968 z"
         id="path1913"
         style="stroke-width:0.871323"
         sodipodi:nodetypes="cccc" />
      <text
         font-family="Arial, Arial_MSFontService, sans-serif"
         font-weight="400"
         font-size="19px"
         id="text1915"
         x="437.1496"
         y="152.76369">N</text>
      <text
         font-family="'Cambria Math', 'Cambria Math_MSFontService', sans-serif"
         font-weight="400"
         font-size="19px"
         id="text1917"
         x="455.81659"
         y="152.76369">×</text>
      <path
         d="m 28.505601,310.407 h 44.0945 v 44.094 h -44.0945 z"
         fill="#ffe2bb"
         fill-rule="evenodd"
         id="path1919" />
      <path
         d="M 72.600101,310.407 H 116.6946 v 44.094 H 72.600101 Z"
         fill="#ffc06d"
         fill-rule="evenodd"
         id="path1921" />
      <path
         d="m 116.6946,310.407 h 44.094 v 44.094 h -44.094 z"
         fill="#ffffff"
         fill-rule="evenodd"
         id="path1923" />
      <path
         d="m 28.505601,354.501 h 44.0945 v 44.095 h -44.0945 z"
         fill="#ffe2bb"
         fill-rule="evenodd"
         id="path1925" />
      <path
         d="M 72.600101,354.501 H 116.6946 v 44.095 H 72.600101 Z"
         fill="#ffe2bb"
         fill-rule="evenodd"
         id="path1927" />
      <path
         d="m 116.6946,354.501 h 44.094 v 44.095 h -44.094 z"
         fill="#ffffff"
         fill-rule="evenodd"
         id="path1929" />
      <path
         d="m 28.505601,398.596 h 44.0945 v 44.094 h -44.0945 z"
         fill="#ffffff"
         fill-rule="evenodd"
         id="path1931" />
      <path
         d="M 72.600101,398.596 H 116.6946 V 442.69 H 72.600101 Z"
         fill="#ffe2bb"
         fill-rule="evenodd"
         id="path1933" />
      <path
         d="m 116.6946,398.596 h 44.094 v 44.094 h -44.094 z"
         fill="#ffe2bb"
         fill-rule="evenodd"
         id="path1935" />
      <path
         d="M 72.600101,309.74 V 443.357"
         stroke="#000000"
         stroke-width="1.33333"
         stroke-linejoin="round"
         stroke-miterlimit="10"
         fill="none"
         fill-rule="evenodd"
         id="path1937" />
      <path
         d="M 116.6946,309.74 V 443.357"
         stroke="#000000"
         stroke-width="1.33333"
         stroke-linejoin="round"
         stroke-miterlimit="10"
         fill="none"
         fill-rule="evenodd"
         id="path1939" />
      <path
         d="M 27.838901,354.501 H 161.4556"
         stroke="#000000"
         stroke-width="1.33333"
         stroke-linejoin="round"
         stroke-miterlimit="10"
         fill="none"
         fill-rule="evenodd"
         id="path1941" />
      <path
         d="M 27.838901,398.596 H 161.4556"
         stroke="#000000"
         stroke-width="1.33333"
         stroke-linejoin="round"
         stroke-miterlimit="10"
         fill="none"
         fill-rule="evenodd"
         id="path1943" />
      <path
         d="M 28.505601,309.74 V 443.357"
         stroke="#000000"
         stroke-width="1.33333"
         stroke-linejoin="round"
         stroke-miterlimit="10"
         fill="none"
         fill-rule="evenodd"
         id="path1945" />
      <path
         d="M 160.7886,309.74 V 443.357"
         stroke="#000000"
         stroke-width="1.33333"
         stroke-linejoin="round"
         stroke-miterlimit="10"
         fill="none"
         fill-rule="evenodd"
         id="path1947" />
      <path
         d="M 27.838901,310.407 H 161.4556"
         stroke="#000000"
         stroke-width="1.33333"
         stroke-linejoin="round"
         stroke-miterlimit="10"
         fill="none"
         fill-rule="evenodd"
         id="path1949" />
      <path
         d="M 27.838901,442.69 H 161.4556"
         stroke="#000000"
         stroke-width="1.33333"
         stroke-linejoin="round"
         stroke-miterlimit="10"
         fill="none"
         fill-rule="evenodd"
         id="path1951" />
      <rect
         x="192.00909"
         y="380.35181"
         width="38"
         height="21"
         stroke="#000000"
         stroke-width="2"
         stroke-miterlimit="8"
         fill="#ffe2bb"
         id="rect1953" />
      <text
         font-family="Arial, Arial_MSFontService, sans-serif"
         font-weight="400"
         font-size="16px"
         id="text1955"
         style="font-size:17.232px"
         x="246.5882"
         y="395.35181">Joint dependencies</text>
      <rect
         x="192.00909"
         y="416.35181"
         width="38"
         height="20"
         stroke="#000000"
         stroke-width="2"
         stroke-miterlimit="8"
         fill="#ffc06d"
         id="rect1957" />
      <text
         font-family="Arial, Arial_MSFontService, sans-serif"
         font-weight="400"
         font-size="16px"
         id="text1959"
         style="font-size:17.232px"
         x="246.267"
         y="424.35181">Dependencies by</text>
      <text
         font-family="Arial, Arial_MSFontService, sans-serif"
         font-weight="400"
         font-size="16px"
         id="text1961"
         style="font-size:17.232px"
         x="246.267"
         y="443.35181">conditioning</text>
      <path
         style="fill:#042433;fill-opacity:1;stroke-width:0.0760668"
         d="m 81.8587,143.85626 v -0.95084 H 98.935679 116.01266 V 129.36555 115.82567 H 98.935679 81.8587 v -0.98887 -0.98886 h 57.54447 57.54448 v 0.49443 0.49443 h -0.98888 -0.98886 v 0.49444 0.49443 h -37.99533 -37.99532 v 13.53988 13.53987 h 37.99532 37.99533 v 0.95084 0.95083 h -17.95174 -17.95175 v -0.49443 -0.49444 h -1.06493 -1.06494 v 0.49444 0.49443 H 119.39763 81.8587 Z"
         id="path25105" />
      <path
         style="fill:#000000;fill-opacity:1;stroke-width:0.0760668"
         d="m 81.8587,143.85626 v -0.95084 H 98.935679 116.01266 V 129.36555 115.82567 H 98.935679 81.8587 v -0.98887 -0.98886 h 57.54447 57.54448 v 0.49443 0.49443 h -0.98888 -0.98886 v 0.49444 0.49443 h -37.99533 -37.99532 v 13.53988 13.53987 h 37.99532 37.99533 v 0.95084 0.95083 h -17.95174 -17.95175 v -0.49443 -0.49444 h -1.06493 -1.06494 v 0.49444 0.49443 H 119.39763 81.8587 Z"
         id="path29841" />
      <path
         style="fill:#000000;fill-opacity:1;stroke-width:0.152133"
         d="M 26.063763,95.85816 V 80.873014 H 127.99317 229.92256 V 95.85816 110.8433 H 127.99317 26.063763 Z m 90.025807,-0.038 -0.0389,-13.045443 -44.080665,-0.03829 -44.080664,-0.03829 V 95.78187 108.8656 h 44.119545 44.119544 z m 78.95725,0 -0.0389,-13.045443 h -38.03331 -38.03336 l -0.0389,13.045443 -0.0389,13.04544 h 38.11113 38.11113 z m 33.01297,0 -0.0389,-13.045443 h -15.51762 -15.51761 l -0.0389,13.045443 -0.0389,13.04544 h 15.59537 15.59539 z"
         id="path29880" />
      <path
         style="fill:#000000;fill-opacity:1;stroke-width:0.152133"
         d="M 26.063763,62.845202 V 47.860058 H 127.99317 229.92256 v 7.226338 7.226339 h -0.44741 c -0.24608,0 -0.4854,0.06142 -0.53178,0.136477 -0.0464,0.07506 -0.0407,0.554285 0.0129,1.064934 0.0939,0.89727 0.11163,0.928456 0.53177,0.928456 h 0.43473 v 6.693871 6.693871 H 127.9931 26.063702 V 62.8452 Z m 90.062997,0 V 49.837794 H 72.00806 27.889364 V 62.845202 75.85261 h 44.118696 44.1187 z m 78.95725,0 V 49.837794 H 156.97458 118.86516 V 62.845202 75.85261 h 38.10942 38.10943 z m 33.01295,0 V 49.837794 H 212.50329 196.90961 V 62.845202 75.85261 h 15.59368 15.59367 z"
         id="path29919" />
      <path
         style="fill:#000000;fill-opacity:1;stroke-width:0.107575"
         d="m 26.07686,129.35407 v -15.49074 h 27.861818 27.861818 v 0.96818 0.96817 H 54.853062 27.905629 v 13.55439 13.5544 h 26.947433 26.947434 v 0.96817 0.96817 h -5.432517 -5.432517 v -0.53787 -0.53787 h -1.021959 -1.021957 v 0.53787 0.53787 H 47.484203 26.07686 Z"
         id="path29958" />
      <path
         style="fill:#000000;fill-opacity:1;stroke-width:0.00631055"
         d="m 218.16734,108.85661 c 0,-0.004 1.6439,-0.006 4.91907,-0.006 h 4.91908 v -2.96596 -2.96595 h 0.0368 0.0368 l 0.005,1.63916 c 0.002,0.90154 0.006,2.23906 0.008,2.97227 l 0.005,1.3331 h -4.96428 c -3.30532,0 -4.96429,-0.002 -4.96429,-0.006 z"
         id="path30222" />
      <path
         style="fill:#000000;fill-opacity:1;stroke-width:0.00631055"
         d="m 229.9239,106.88141 v -3.96302 h 0.0378 0.0378 v 3.96302 3.96302 h -0.0378 -0.0378 z"
         id="path30261" />
      <path
         style="fill:#000000;fill-opacity:1;stroke-width:0.0504844"
         d="m 446.28415,96.78646 c -0.0834,-0.01 -0.36278,-0.0422 -0.62106,-0.0721 -3.17572,-0.36847 -6.20634,-2.11956 -8.16259,-4.71633 -1.28945,-1.71165 -2.0424,-3.54044 -2.38088,-5.782779 -0.0803,-0.531823 -0.0887,-1.47269 -0.10517,-11.717905 l -0.0178,-11.139654 0.45646,-0.243902 c 0.25105,-0.134151 0.45645,-0.256571 0.45645,-0.272052 0,-0.01551 -0.20446,-0.128368 -0.45436,-0.250856 l -0.45436,-0.222708 v -1.781811 -1.781809 h 1.48929 1.48928 v 13.224319 c 0,14.378551 -0.0113,13.75403 0.27592,14.895477 0.17668,0.70153 0.34802,1.15658 0.7128,1.89316 0.69055,1.3944 1.73689,2.58491 3.04569,3.46536 1.39813,0.94054 2.8936,1.44739 4.59842,1.55853 0.44893,0.0293 15.45832,0.0481 38.80987,0.0487 l 38.07784,10e-4 v 1.46405 1.46405 h -5.72891 -5.7289 l -0.0129,-0.99707 -0.0129,-0.99707 -2.00675,-0.0132 -2.00676,-0.0132 v 1.01027 1.01026 l -30.78284,-0.008 c -16.93057,-0.004 -30.85101,-0.0155 -30.9343,-0.0252 z"
         id="path31928" />
      <path
         style="fill:#000000;fill-opacity:1;stroke-width:0.0712745"
         d="m 27.831329,297.53161 v -13.49379 h 66.741972 66.741979 v 5.89015 5.89015 h -0.49807 -0.49808 v 1.03524 1.03523 h 0.49808 0.49807 v 6.16869 6.16867 l -0.80048,0.0464 c -0.44027,0.0255 -30.28204,0.0367 -66.315059,0.0249 l -65.51457,-0.0215 v 0.37483 0.37483 H 28.25825 27.831329 Z m 131.545231,-0.0178 -0.018,-11.51255 -64.803049,-0.0179 -64.80304,-0.0179 v 11.53044 11.53044 h 64.82108 64.821039 z"
         id="path31967" />
      <rect
         style="fill:#042433;fill-opacity:1;stroke:#000000;stroke-width:1.6155;stroke-opacity:1"
         id="rect91630"
         width="0.043344378"
         height="0.27722597"
         x="160.46718"
         y="297.74088" />
      <text
         xml:space="preserve"
         transform="matrix(1.6155,0,0,1.6155,-4.7432579,16.47336)"
         id="text7327"
         style="font-size:26.6667px;line-height:1.25;font-family:Roboto;-inkscape-font-specification:Roboto;white-space:pre;shape-inside:url(#rect7329)" />
      <text
         xml:space="preserve"
         transform="matrix(1.6155,0,0,1.6155,-4.7432579,16.47336)"
         id="text110576"
         style="font-size:26.6667px;line-height:1.25;font-family:Roboto;-inkscape-font-specification:Roboto;white-space:pre;shape-inside:url(#rect110578)" />
      <path
         d="m 228.09676,62.845202 200.17666,6.3e-4"
         stroke="#000000"
         stroke-width="2.50987"
         stroke-miterlimit="8"
         fill="none"
         fill-rule="evenodd"
         id="path1907-8-8-7" />
    </g>
  </g>
</svg>
